<?xml version="1.0" encoding="UTF-8" standalone="no"?>
<!DOCTYPE svg PUBLIC "-//W3C//DTD SVG 1.1//EN"
 "http://www.w3.org/Graphics/SVG/1.1/DTD/svg11.dtd">
<!-- Generated by graphviz version 2.43.0 (0)
 -->
<!-- Title: Cognitive_Architecture Pages: 1 -->
<svg width="1512pt" height="445pt"
 viewBox="0.00 0.00 1512.07 445.33" xmlns="http://www.w3.org/2000/svg" xmlns:xlink="http://www.w3.org/1999/xlink">
<g id="graph0" class="graph" transform="scale(1 1) rotate(0) translate(4 441.33)">
<title>Cognitive_Architecture</title>
<polygon fill="#0d1117" stroke="transparent" points="-4,4 -4,-441.33 1508.07,-441.33 1508.07,4 -4,4"/>
<!-- Sovereign_Mind -->
<g id="node1" class="node">
<title>Sovereign_Mind</title>
<ellipse fill="#ff0066" stroke="black" stroke-width="2" cx="739.04" cy="-386.83" rx="144" ry="50.5"/>
<text text-anchor="middle" x="739.04" y="-396.73" font-family="Courier New" font-size="12.00" fill="white">SOVEREIGN MIND</text>
<text text-anchor="middle" x="739.04" y="-383.73" font-family="Courier New" font-size="12.00" fill="white">@strategickhaos</text>
<text text-anchor="middle" x="739.04" y="-370.73" font-family="Courier New" font-size="12.00" fill="white">Node 137</text>
</g>
<!-- Thread_A -->
<g id="node2" class="node">
<title>Thread_A</title>
<ellipse fill="#ff6600" stroke="black" stroke-width="2" cx="123.04" cy="-276.29" rx="123.07" ry="24.08"/>
<text text-anchor="middle" x="123.04" y="-279.69" font-family="Courier New" font-size="12.00">Environment Load</text>
<text text-anchor="middle" x="123.04" y="-266.69" font-family="Courier New" font-size="12.00">(Athena, Docker, RAG)</text>
</g>
<!-- Sovereign_Mind&#45;&gt;Thread_A -->
<g id="edge1" class="edge">
<title>Sovereign_Mind&#45;&gt;Thread_A</title>
<path fill="none" stroke="#ff0066" stroke-width="2" d="M611.4,-363.34C496.54,-343.1 330.01,-313.76 224.14,-295.11"/>
<polygon fill="#ff0066" stroke="#ff0066" stroke-width="2" points="224.72,-290.94 212.17,-293 223.26,-299.22 224.72,-290.94"/>
</g>
<!-- Thread_B -->
<g id="node3" class="node">
<title>Thread_B</title>
<ellipse fill="#ff9900" stroke="black" stroke-width="2" cx="372.04" cy="-276.29" rx="107.46" ry="24.08"/>
<text text-anchor="middle" x="372.04" y="-279.69" font-family="Courier New" font-size="12.00">Repo Scanning</text>
<text text-anchor="middle" x="372.04" y="-266.69" font-family="Courier New" font-size="12.00">(GitHub, Obsidian)</text>
</g>
<!-- Sovereign_Mind&#45;&gt;Thread_B -->
<g id="edge2" class="edge">
<title>Sovereign_Mind&#45;&gt;Thread_B</title>
<path fill="none" stroke="#ff0066" stroke-width="2" d="M629.92,-353.56C570.79,-336.07 499.26,-314.92 446.55,-299.33"/>
<polygon fill="#ff0066" stroke="#ff0066" stroke-width="2" points="447.62,-295.27 434.93,-295.89 445.24,-303.32 447.62,-295.27"/>
</g>
<!-- Thread_C -->
<g id="node4" class="node">
<title>Thread_C</title>
<ellipse fill="#ffcc00" stroke="black" stroke-width="2" cx="610.04" cy="-276.29" rx="112.36" ry="24.08"/>
<text text-anchor="middle" x="610.04" y="-279.69" font-family="Courier New" font-size="12.00">Dependency Mapping</text>
<text text-anchor="middle" x="610.04" y="-266.69" font-family="Courier New" font-size="12.00">(YAML, Dockerfiles)</text>
</g>
<!-- Sovereign_Mind&#45;&gt;Thread_C -->
<g id="edge3" class="edge">
<title>Sovereign_Mind&#45;&gt;Thread_C</title>
<path fill="none" stroke="#ff0066" stroke-width="2" d="M684.33,-339.8C671.45,-328.97 658.04,-317.69 646.22,-307.74"/>
<polygon fill="#ff0066" stroke="#ff0066" stroke-width="2" points="648.59,-304.24 636.71,-299.73 643.18,-310.67 648.59,-304.24"/>
</g>
<!-- Thread_D -->
<g id="node5" class="node">
<title>Thread_D</title>
<ellipse fill="#ffff00" stroke="black" stroke-width="2" cx="869.04" cy="-276.29" rx="128.89" ry="24.08"/>
<text text-anchor="middle" x="869.04" y="-279.69" font-family="Courier New" font-size="12.00">Synthesis Cues</text>
<text text-anchor="middle" x="869.04" y="-266.69" font-family="Courier New" font-size="12.00">(Contradiction Engine)</text>
</g>
<!-- Sovereign_Mind&#45;&gt;Thread_D -->
<g id="edge4" class="edge">
<title>Sovereign_Mind&#45;&gt;Thread_D</title>
<path fill="none" stroke="#ff0066" stroke-width="2" d="M793.79,-340.12C806.93,-329.14 820.65,-317.69 832.71,-307.62"/>
<polygon fill="#ff0066" stroke="#ff0066" stroke-width="2" points="835.47,-310.79 841.99,-299.87 830.09,-304.34 835.47,-310.79"/>
</g>
<!-- Thread_E -->
<g id="node6" class="node">
<title>Thread_E</title>
<ellipse fill="#ccff00" stroke="black" stroke-width="2" cx="1128.04" cy="-276.29" rx="112.36" ry="24.08"/>
<text text-anchor="middle" x="1128.04" y="-279.69" font-family="Courier New" font-size="12.00">Visual Layout</text>
<text text-anchor="middle" x="1128.04" y="-266.69" font-family="Courier New" font-size="12.00">(Monitors, Windows)</text>
</g>
<!-- Sovereign_Mind&#45;&gt;Thread_E -->
<g id="edge5" class="edge">
<title>Sovereign_Mind&#45;&gt;Thread_E</title>
<path fill="none" stroke="#ff0066" stroke-width="2" d="M850.51,-354.73C914.33,-336.92 992.84,-315.02 1050.05,-299.05"/>
<polygon fill="#ff0066" stroke="#ff0066" stroke-width="2" points="1051.49,-303.01 1061.92,-295.74 1049.23,-294.92 1051.49,-303.01"/>
</g>
<!-- Thread_F -->
<g id="node7" class="node">
<title>Thread_F</title>
<ellipse fill="#99ff00" stroke="black" stroke-width="2" cx="1381.04" cy="-276.29" rx="123.07" ry="24.08"/>
<text text-anchor="middle" x="1381.04" y="-279.69" font-family="Courier New" font-size="12.00">Cognitive Compression</text>
<text text-anchor="middle" x="1381.04" y="-266.69" font-family="Courier New" font-size="12.00">(Pattern → Insight)</text>
</g>
<!-- Sovereign_Mind&#45;&gt;Thread_F -->
<g id="edge6" class="edge">
<title>Sovereign_Mind&#45;&gt;Thread_F</title>
<path fill="none" stroke="#ff0066" stroke-width="2" d="M868.25,-364.42C971.37,-347.27 1119.51,-322.5 1249.04,-300.33 1259.01,-298.63 1269.4,-296.84 1279.78,-295.04"/>
<polygon fill="#ff0066" stroke="#ff0066" stroke-width="2" points="1280.84,-299.12 1291.94,-292.93 1279.4,-290.84 1280.84,-299.12"/>
</g>
<!-- IDEs -->
<g id="node13" class="node">
<title>IDEs</title>
<ellipse fill="#ff3399" stroke="black" stroke-width="2" cx="882.04" cy="-192.21" rx="139.1" ry="24.08"/>
<text text-anchor="middle" x="882.04" y="-195.61" font-family="Courier New" font-size="12.00">IDEs</text>
<text text-anchor="middle" x="882.04" y="-182.61" font-family="Courier New" font-size="12.00">(VSCode, Rider, PyCharm)</text>
</g>
<!-- Thread_A&#45;&gt;IDEs -->
<g id="edge7" class="edge">
<title>Thread_A&#45;&gt;IDEs</title>
<path fill="none" stroke="#ff0066" stroke-width="2" d="M209.42,-259.08C224.91,-256.53 240.92,-254.12 256.04,-252.25 467.46,-226.04 522.39,-240.66 734.04,-216.25 746.6,-214.8 759.72,-213.07 772.75,-211.22"/>
<polygon fill="#ff0066" stroke="#ff0066" stroke-width="2" points="773.39,-215.37 784.66,-209.49 772.18,-207.06 773.39,-215.37"/>
</g>
<!-- Terminals -->
<g id="node14" class="node">
<title>Terminals</title>
<ellipse fill="#ff3399" stroke="black" stroke-width="2" cx="1173.04" cy="-192.21" rx="133.79" ry="24.08"/>
<text text-anchor="middle" x="1173.04" y="-195.61" font-family="Courier New" font-size="12.00">Terminals</text>
<text text-anchor="middle" x="1173.04" y="-182.61" font-family="Courier New" font-size="12.00">(PowerShell, WSL, Kali)</text>
</g>
<!-- Thread_A&#45;&gt;Terminals -->
<g id="edge8" class="edge">
<title>Thread_A&#45;&gt;Terminals</title>
<path fill="none" stroke="#ff0066" stroke-width="2" d="M208.31,-258.89C224.13,-256.31 240.55,-253.95 256.04,-252.25 598.36,-214.78 687.49,-251.7 1030.04,-216.25 1042.45,-214.96 1055.43,-213.31 1068.28,-211.48"/>
<polygon fill="#ff0066" stroke="#ff0066" stroke-width="2" points="1069.29,-215.58 1080.55,-209.68 1068.06,-207.27 1069.29,-215.58"/>
</g>
<!-- Docker -->
<g id="node15" class="node">
<title>Docker</title>
<ellipse fill="#ff3399" stroke="black" stroke-width="2" cx="352.04" cy="-192.21" rx="96.75" ry="24.08"/>
<text text-anchor="middle" x="352.04" y="-195.61" font-family="Courier New" font-size="12.00">Docker Swarm</text>
<text text-anchor="middle" x="352.04" y="-182.61" font-family="Courier New" font-size="12.00">(Qdrant, Ollama)</text>
</g>
<!-- Thread_A&#45;&gt;Docker -->
<g id="edge9" class="edge">
<title>Thread_A&#45;&gt;Docker</title>
<path fill="none" stroke="#ff0066" stroke-width="2" d="M179.94,-254.9C212.4,-243.26 253.23,-228.63 286.96,-216.53"/>
<polygon fill="#ff0066" stroke="#ff0066" stroke-width="2" points="288.7,-220.37 298.58,-212.37 285.86,-212.47 288.7,-220.37"/>
</g>
<!-- Agents -->
<g id="node16" class="node">
<title>Agents</title>
<ellipse fill="#ff3399" stroke="black" stroke-width="2" cx="596.04" cy="-192.21" rx="128.89" ry="24.08"/>
<text text-anchor="middle" x="596.04" y="-195.61" font-family="Courier New" font-size="12.00">AI Agents</text>
<text text-anchor="middle" x="596.04" y="-182.61" font-family="Courier New" font-size="12.00">(Grok, Qwen, Recon.py)</text>
</g>
<!-- Thread_A&#45;&gt;Agents -->
<g id="edge10" class="edge">
<title>Thread_A&#45;&gt;Agents</title>
<path fill="none" stroke="#ff0066" stroke-width="2" d="M212.56,-259.76C292.29,-245.92 408.93,-225.68 492.62,-211.15"/>
<polygon fill="#ff0066" stroke="#ff0066" stroke-width="2" points="493.36,-215.29 504.46,-209.1 491.92,-207.01 493.36,-215.29"/>
</g>
<!-- Thread_B&#45;&gt;IDEs -->
<g id="edge11" class="edge">
<title>Thread_B&#45;&gt;IDEs</title>
<path fill="none" stroke="#ff0066" stroke-width="2" d="M449.35,-259.52C462.57,-256.98 476.18,-254.46 489.04,-252.25 597.5,-233.61 625.22,-232.72 734.04,-216.25 745.61,-214.5 757.68,-212.65 769.73,-210.8"/>
<polygon fill="#ff0066" stroke="#ff0066" stroke-width="2" points="770.53,-214.92 781.74,-208.94 769.24,-206.62 770.53,-214.92"/>
</g>
<!-- Thread_B&#45;&gt;Terminals -->
<g id="edge12" class="edge">
<title>Thread_B&#45;&gt;Terminals</title>
<path fill="none" stroke="#ff0066" stroke-width="2" d="M447.01,-259.05C460.93,-256.46 475.39,-254.04 489.04,-252.25 727.97,-220.9 790.6,-243.45 1030.04,-216.25 1042.25,-214.86 1055.01,-213.17 1067.67,-211.33"/>
<polygon fill="#ff0066" stroke="#ff0066" stroke-width="2" points="1068.5,-215.45 1079.75,-209.53 1067.26,-207.14 1068.5,-215.45"/>
</g>
<!-- Thread_B&#45;&gt;Docker -->
<g id="edge13" class="edge">
<title>Thread_B&#45;&gt;Docker</title>
<path fill="none" stroke="#ff0066" stroke-width="2" d="M366.36,-251.99C364.55,-244.56 362.51,-236.17 360.54,-228.11"/>
<polygon fill="#ff0066" stroke="#ff0066" stroke-width="2" points="364.58,-226.95 357.66,-216.28 356.42,-228.94 364.58,-226.95"/>
</g>
<!-- Thread_B&#45;&gt;Agents -->
<g id="edge14" class="edge">
<title>Thread_B&#45;&gt;Agents</title>
<path fill="none" stroke="#ff0066" stroke-width="2" d="M426.26,-255.42C456.95,-244.17 495.62,-230.01 528.29,-218.03"/>
<polygon fill="#ff0066" stroke="#ff0066" stroke-width="2" points="529.76,-221.97 539.58,-213.9 526.87,-214.08 529.76,-221.97"/>
</g>
<!-- Thread_C&#45;&gt;IDEs -->
<g id="edge15" class="edge">
<title>Thread_C&#45;&gt;IDEs</title>
<path fill="none" stroke="#ff0066" stroke-width="2" d="M673.12,-256.25C711.91,-244.55 761.94,-229.45 803.32,-216.96"/>
<polygon fill="#ff0066" stroke="#ff0066" stroke-width="2" points="804.74,-220.92 815.02,-213.43 802.32,-212.88 804.74,-220.92"/>
</g>
<!-- Thread_C&#45;&gt;Terminals -->
<g id="edge16" class="edge">
<title>Thread_C&#45;&gt;Terminals</title>
<path fill="none" stroke="#ff0066" stroke-width="2" d="M689.96,-259.27C703.64,-256.76 717.72,-254.32 731.04,-252.25 863.3,-231.72 897.49,-234.9 1030.04,-216.25 1041.62,-214.62 1053.71,-212.82 1065.74,-210.97"/>
<polygon fill="#ff0066" stroke="#ff0066" stroke-width="2" points="1066.52,-215.1 1077.74,-209.11 1065.23,-206.8 1066.52,-215.1"/>
</g>
<!-- Thread_C&#45;&gt;Docker -->
<g id="edge17" class="edge">
<title>Thread_C&#45;&gt;Docker</title>
<path fill="none" stroke="#ff0066" stroke-width="2" d="M549.22,-255.94C510.85,-243.73 461.18,-227.93 421.29,-215.24"/>
<polygon fill="#ff0066" stroke="#ff0066" stroke-width="2" points="422.5,-211.22 409.79,-211.58 419.95,-219.22 422.5,-211.22"/>
</g>
<!-- Thread_C&#45;&gt;Agents -->
<g id="edge18" class="edge">
<title>Thread_C&#45;&gt;Agents</title>
<path fill="none" stroke="#ff0066" stroke-width="2" d="M606.06,-251.99C604.81,-244.65 603.4,-236.37 602.04,-228.39"/>
<polygon fill="#ff0066" stroke="#ff0066" stroke-width="2" points="606.13,-227.41 599.97,-216.28 597.85,-228.82 606.13,-227.41"/>
</g>
<!-- Thread_D&#45;&gt;IDEs -->
<g id="edge19" class="edge">
<title>Thread_D&#45;&gt;IDEs</title>
<path fill="none" stroke="#ff0066" stroke-width="2" d="M872.73,-251.99C873.89,-244.65 875.2,-236.37 876.46,-228.39"/>
<polygon fill="#ff0066" stroke="#ff0066" stroke-width="2" points="880.65,-228.79 878.38,-216.28 872.36,-227.48 880.65,-228.79"/>
</g>
<!-- Thread_D&#45;&gt;Terminals -->
<g id="edge20" class="edge">
<title>Thread_D&#45;&gt;Terminals</title>
<path fill="none" stroke="#ff0066" stroke-width="2" d="M939.93,-256.15C984.73,-244.05 1042.83,-228.37 1089.81,-215.68"/>
<polygon fill="#ff0066" stroke="#ff0066" stroke-width="2" points="1091.02,-219.71 1101.51,-212.52 1088.83,-211.6 1091.02,-219.71"/>
</g>
<!-- Thread_D&#45;&gt;Docker -->
<g id="edge21" class="edge">
<title>Thread_D&#45;&gt;Docker</title>
<path fill="none" stroke="#ff0066" stroke-width="2" d="M776.69,-259.42C761.45,-256.93 745.81,-254.46 731.04,-252.25 610,-234.17 578.6,-237.27 458.04,-216.25 449.9,-214.83 441.45,-213.22 433.02,-211.53"/>
<polygon fill="#ff0066" stroke="#ff0066" stroke-width="2" points="433.75,-207.4 421.15,-209.1 432.06,-215.62 433.75,-207.4"/>
</g>
<!-- Thread_D&#45;&gt;Agents -->
<g id="edge22" class="edge">
<title>Thread_D&#45;&gt;Agents</title>
<path fill="none" stroke="#ff0066" stroke-width="2" d="M803.3,-255.53C764.16,-243.76 714.28,-228.76 673.27,-216.43"/>
<polygon fill="#ff0066" stroke="#ff0066" stroke-width="2" points="674.38,-212.38 661.68,-212.94 671.96,-220.42 674.38,-212.38"/>
</g>
<!-- Thread_E&#45;&gt;IDEs -->
<g id="edge23" class="edge">
<title>Thread_E&#45;&gt;IDEs</title>
<path fill="none" stroke="#ff0066" stroke-width="2" d="M1069.43,-255.73C1035.32,-244.35 992,-229.9 955.62,-217.76"/>
<polygon fill="#ff0066" stroke="#ff0066" stroke-width="2" points="956.78,-213.72 944.06,-213.91 954.12,-221.69 956.78,-213.72"/>
</g>
<!-- Thread_E&#45;&gt;Terminals -->
<g id="edge24" class="edge">
<title>Thread_E&#45;&gt;Terminals</title>
<path fill="none" stroke="#ff0066" stroke-width="2" d="M1140.81,-251.99C1145.08,-244.21 1149.92,-235.38 1154.53,-226.97"/>
<polygon fill="#ff0066" stroke="#ff0066" stroke-width="2" points="1158.3,-228.83 1160.39,-216.28 1150.93,-224.79 1158.3,-228.83"/>
</g>
<!-- Thread_E&#45;&gt;Docker -->
<g id="edge25" class="edge">
<title>Thread_E&#45;&gt;Docker</title>
<path fill="none" stroke="#ff0066" stroke-width="2" d="M1049.83,-258.95C1035.64,-256.39 1020.93,-254.02 1007.04,-252.25 764.48,-221.32 700.18,-250.31 458.04,-216.25 449.45,-215.04 440.52,-213.52 431.65,-211.84"/>
<polygon fill="#ff0066" stroke="#ff0066" stroke-width="2" points="432.21,-207.67 419.62,-209.47 430.58,-215.91 432.21,-207.67"/>
</g>
<!-- Thread_E&#45;&gt;Agents -->
<g id="edge26" class="edge">
<title>Thread_E&#45;&gt;Agents</title>
<path fill="none" stroke="#ff0066" stroke-width="2" d="M1047.77,-259.34C1034.2,-256.83 1020.23,-254.37 1007.04,-252.25 886.21,-232.79 855.08,-234.33 734.04,-216.25 723.19,-214.63 711.87,-212.86 700.59,-211.05"/>
<polygon fill="#ff0066" stroke="#ff0066" stroke-width="2" points="700.9,-206.85 688.38,-209.08 699.56,-215.14 700.9,-206.85"/>
</g>
<!-- Thread_F&#45;&gt;IDEs -->
<g id="edge27" class="edge">
<title>Thread_F&#45;&gt;IDEs</title>
<path fill="none" stroke="#ff0066" stroke-width="2" d="M1291.95,-259.58C1277.61,-257.09 1262.92,-254.58 1249.04,-252.25 1163.58,-237.92 1066.8,-222.38 994.09,-210.84"/>
<polygon fill="#ff0066" stroke="#ff0066" stroke-width="2" points="994.69,-206.68 982.18,-208.95 993.37,-214.98 994.69,-206.68"/>
</g>
<!-- Thread_F&#45;&gt;Terminals -->
<g id="edge28" class="edge">
<title>Thread_F&#45;&gt;Terminals</title>
<path fill="none" stroke="#ff0066" stroke-width="2" d="M1328.28,-254.47C1300.76,-243.61 1266.86,-230.23 1237.77,-218.75"/>
<polygon fill="#ff0066" stroke="#ff0066" stroke-width="2" points="1239.16,-214.79 1226.46,-214.29 1236.08,-222.6 1239.16,-214.79"/>
</g>
<!-- Thread_F&#45;&gt;Docker -->
<g id="edge29" class="edge">
<title>Thread_F&#45;&gt;Docker</title>
<path fill="none" stroke="#ff0066" stroke-width="2" d="M1296.06,-258.82C1280.47,-256.26 1264.3,-253.92 1249.04,-252.25 899.21,-213.91 807,-261.79 458.04,-216.25 449.27,-215.11 440.16,-213.61 431.12,-211.92"/>
<polygon fill="#ff0066" stroke="#ff0066" stroke-width="2" points="431.89,-207.79 419.31,-209.61 430.28,-216.04 431.89,-207.79"/>
</g>
<!-- Thread_F&#45;&gt;Agents -->
<g id="edge30" class="edge">
<title>Thread_F&#45;&gt;Agents</title>
<path fill="none" stroke="#ff0066" stroke-width="2" d="M1295.31,-259.01C1279.94,-256.47 1264.05,-254.08 1249.04,-252.25 1021.28,-224.49 961.9,-243.17 734.04,-216.25 722.37,-214.87 710.18,-213.19 698.09,-211.37"/>
<polygon fill="#ff0066" stroke="#ff0066" stroke-width="2" points="698.55,-207.19 686.05,-209.51 697.27,-215.49 698.55,-207.19"/>
</g>
<!-- Monitor_1 -->
<g id="node8" class="node">
<title>Monitor_1</title>
<ellipse fill="#0066ff" stroke="black" stroke-width="2" cx="1231.04" cy="-108.12" rx="107.46" ry="24.08"/>
<text text-anchor="middle" x="1231.04" y="-111.52" font-family="Courier New" font-size="12.00" fill="white">Strategic Overview</text>
<text text-anchor="middle" x="1231.04" y="-98.52" font-family="Courier New" font-size="12.00" fill="white">(DOT Graphs, RAG)</text>
</g>
<!-- Athena -->
<g id="node17" class="node">
<title>Athena</title>
<ellipse fill="#00cc00" stroke="black" stroke-width="2" cx="838.04" cy="-24.04" rx="80.72" ry="24.08"/>
<text text-anchor="middle" x="838.04" y="-27.44" font-family="Courier New" font-size="12.00" fill="white">Athena 128GB</text>
<text text-anchor="middle" x="838.04" y="-14.44" font-family="Courier New" font-size="12.00" fill="white">Control Plane</text>
</g>
<!-- Monitor_1&#45;&gt;Athena -->
<g id="edge51" class="edge">
<title>Monitor_1&#45;&gt;Athena</title>
<path fill="none" stroke="#ff0066" stroke-width="2" d="M1152.69,-91.65C1139.78,-89.11 1126.53,-86.52 1114.04,-84.08 1030.96,-67.91 1009.6,-66.7 927.04,-48.08 920.96,-46.71 914.68,-45.23 908.38,-43.69"/>
<polygon fill="#ff0066" stroke="#ff0066" stroke-width="2" points="908.97,-39.51 896.31,-40.69 906.95,-47.66 908.97,-39.51"/>
</g>
<!-- Kali_VM -->
<g id="node18" class="node">
<title>Kali_VM</title>
<ellipse fill="#009900" stroke="black" stroke-width="2" cx="1025.04" cy="-24.04" rx="88.79" ry="18"/>
<text text-anchor="middle" x="1025.04" y="-20.94" font-family="Courier New" font-size="12.00" fill="white">Kali Offensive VM</text>
</g>
<!-- Monitor_1&#45;&gt;Kali_VM -->
<g id="edge52" class="edge">
<title>Monitor_1&#45;&gt;Kali_VM</title>
<path fill="none" stroke="#ff0066" stroke-width="2" d="M1180.12,-86.83C1147.96,-74.02 1106.62,-57.55 1074.71,-44.84"/>
<polygon fill="#ff0066" stroke="#ff0066" stroke-width="2" points="1076.12,-40.87 1063.42,-40.33 1073.01,-48.68 1076.12,-40.87"/>
</g>
<!-- Nova -->
<g id="node19" class="node">
<title>Nova</title>
<ellipse fill="#006600" stroke="black" stroke-width="2" cx="505.04" cy="-24.04" rx="65.74" ry="18"/>
<text text-anchor="middle" x="505.04" y="-20.94" font-family="Courier New" font-size="12.00" fill="white">Nova TUF GPU</text>
</g>
<!-- Monitor_1&#45;&gt;Nova -->
<g id="edge53" class="edge">
<title>Monitor_1&#45;&gt;Nova</title>
<path fill="none" stroke="#ff0066" stroke-width="2" d="M1156.06,-90.89C1142.14,-88.3 1127.69,-85.88 1114.04,-84.08 878.2,-53.04 813.95,-91.3 580.04,-48.08 571.94,-46.59 563.48,-44.51 555.28,-42.21"/>
<polygon fill="#ff0066" stroke="#ff0066" stroke-width="2" points="556.24,-38.12 543.54,-38.73 553.85,-46.17 556.24,-38.12"/>
</g>
<!-- Storage -->
<g id="node20" class="node">
<title>Storage</title>
<ellipse fill="#003300" stroke="black" stroke-width="2" cx="664.04" cy="-24.04" rx="75.2" ry="18"/>
<text text-anchor="middle" x="664.04" y="-20.94" font-family="Courier New" font-size="12.00" fill="white">WD Black Array</text>
</g>
<!-- Monitor_1&#45;&gt;Storage -->
<g id="edge54" class="edge">
<title>Monitor_1&#45;&gt;Storage</title>
<path fill="none" stroke="#ff0066" stroke-width="2" d="M1155.07,-91.06C1141.44,-88.49 1127.35,-86.04 1114.04,-84.08 952.33,-60.26 908.76,-77.81 748.04,-48.08 738.84,-46.38 729.18,-44.16 719.82,-41.76"/>
<polygon fill="#ff0066" stroke="#ff0066" stroke-width="2" points="720.85,-37.69 708.18,-38.66 718.69,-45.81 720.85,-37.69"/>
</g>
<!-- Monitor_2 -->
<g id="node9" class="node">
<title>Monitor_2</title>
<ellipse fill="#0099ff" stroke="black" stroke-width="2" cx="294.04" cy="-108.12" rx="112.36" ry="24.08"/>
<text text-anchor="middle" x="294.04" y="-111.52" font-family="Courier New" font-size="12.00" fill="white">Active Code</text>
<text text-anchor="middle" x="294.04" y="-98.52" font-family="Courier New" font-size="12.00" fill="white">(VSCode, JetBrains)</text>
</g>
<!-- Monitor_2&#45;&gt;Athena -->
<g id="edge55" class="edge">
<title>Monitor_2&#45;&gt;Athena</title>
<path fill="none" stroke="#ff0066" stroke-width="2" d="M373.95,-91.1C387.94,-88.56 402.39,-86.11 416.04,-84.08 562.85,-62.29 602,-74.56 748.04,-48.08 754.85,-46.85 761.91,-45.38 768.94,-43.79"/>
<polygon fill="#ff0066" stroke="#ff0066" stroke-width="2" points="769.97,-47.86 780.69,-41.02 768.05,-39.69 769.97,-47.86"/>
</g>
<!-- Monitor_2&#45;&gt;Kali_VM -->
<g id="edge56" class="edge">
<title>Monitor_2&#45;&gt;Kali_VM</title>
<path fill="none" stroke="#ff0066" stroke-width="2" d="M372.58,-90.9C386.98,-88.32 401.93,-85.91 416.04,-84.08 642.28,-54.87 702.54,-82.56 928.04,-48.08 939.09,-46.39 950.75,-44.09 962,-41.59"/>
<polygon fill="#ff0066" stroke="#ff0066" stroke-width="2" points="963.25,-45.61 974,-38.81 961.36,-37.42 963.25,-45.61"/>
</g>
<!-- Monitor_2&#45;&gt;Nova -->
<g id="edge57" class="edge">
<title>Monitor_2&#45;&gt;Nova</title>
<path fill="none" stroke="#ff0066" stroke-width="2" d="M346.46,-86.73C380.53,-73.48 424.57,-56.34 457.6,-43.5"/>
<polygon fill="#ff0066" stroke="#ff0066" stroke-width="2" points="459.12,-47.41 468.78,-39.14 456.08,-39.58 459.12,-47.41"/>
</g>
<!-- Monitor_2&#45;&gt;Storage -->
<g id="edge58" class="edge">
<title>Monitor_2&#45;&gt;Storage</title>
<path fill="none" stroke="#ff0066" stroke-width="2" d="M376.02,-91.65C433.37,-80.47 511.63,-64.51 580.04,-48.08 588.43,-46.07 597.25,-43.81 605.9,-41.51"/>
<polygon fill="#ff0066" stroke="#ff0066" stroke-width="2" points="607.03,-45.55 617.52,-38.37 604.84,-37.44 607.03,-45.55"/>
</g>
<!-- Monitor_3 -->
<g id="node10" class="node">
<title>Monitor_3</title>
<ellipse fill="#00ccff" stroke="black" stroke-width="2" cx="532.04" cy="-108.12" rx="107.46" ry="24.08"/>
<text text-anchor="middle" x="532.04" y="-111.52" font-family="Courier New" font-size="12.00" fill="white">Terminals + Docker</text>
<text text-anchor="middle" x="532.04" y="-98.52" font-family="Courier New" font-size="12.00" fill="white">(PowerShell, Kali)</text>
</g>
<!-- Monitor_3&#45;&gt;Athena -->
<g id="edge59" class="edge">
<title>Monitor_3&#45;&gt;Athena</title>
<path fill="none" stroke="#ff0066" stroke-width="2" d="M598.81,-89.21C648.79,-75.81 717,-57.51 767.8,-43.88"/>
<polygon fill="#ff0066" stroke="#ff0066" stroke-width="2" points="769.16,-47.87 779.66,-40.7 766.98,-39.75 769.16,-47.87"/>
</g>
<!-- Monitor_3&#45;&gt;Kali_VM -->
<g id="edge60" class="edge">
<title>Monitor_3&#45;&gt;Kali_VM</title>
<path fill="none" stroke="#ff0066" stroke-width="2" d="M609,-91.22C622.32,-88.68 636.06,-86.2 649.04,-84.08 772.44,-63.99 805.05,-70.56 928.04,-48.08 938.55,-46.16 949.64,-43.83 960.41,-41.39"/>
<polygon fill="#ff0066" stroke="#ff0066" stroke-width="2" points="961.65,-45.41 972.39,-38.61 959.75,-37.23 961.65,-45.41"/>
</g>
<!-- Monitor_3&#45;&gt;Nova -->
<g id="edge61" class="edge">
<title>Monitor_3&#45;&gt;Nova</title>
<path fill="none" stroke="#ff0066" stroke-width="2" d="M524.37,-83.82C521.3,-74.49 517.73,-63.65 514.51,-53.83"/>
<polygon fill="#ff0066" stroke="#ff0066" stroke-width="2" points="518.4,-52.22 510.66,-42.14 510.42,-54.85 518.4,-52.22"/>
</g>
<!-- Monitor_3&#45;&gt;Storage -->
<g id="edge62" class="edge">
<title>Monitor_3&#45;&gt;Storage</title>
<path fill="none" stroke="#ff0066" stroke-width="2" d="M567.06,-85.34C585.79,-73.7 608.83,-59.37 627.75,-47.61"/>
<polygon fill="#ff0066" stroke="#ff0066" stroke-width="2" points="630.09,-51.1 638.06,-41.19 625.66,-43.96 630.09,-51.1"/>
</g>
<!-- Monitor_4 -->
<g id="node11" class="node">
<title>Monitor_4</title>
<ellipse fill="#00ffff" stroke="black" stroke-width="2" cx="765.04" cy="-108.12" rx="107.46" ry="24.08"/>
<text text-anchor="middle" x="765.04" y="-111.52" font-family="Courier New" font-size="12.00">Logs + Recon</text>
<text text-anchor="middle" x="765.04" y="-98.52" font-family="Courier New" font-size="12.00">(Bug Bounty, IPFS)</text>
</g>
<!-- Monitor_4&#45;&gt;Athena -->
<g id="edge63" class="edge">
<title>Monitor_4&#45;&gt;Athena</title>
<path fill="none" stroke="#ff0066" stroke-width="2" d="M785.37,-84.26C792.95,-75.74 801.69,-65.91 809.85,-56.74"/>
<polygon fill="#ff0066" stroke="#ff0066" stroke-width="2" points="813.23,-59.26 818.06,-47.5 806.95,-53.68 813.23,-59.26"/>
</g>
<!-- Monitor_4&#45;&gt;Kali_VM -->
<g id="edge64" class="edge">
<title>Monitor_4&#45;&gt;Kali_VM</title>
<path fill="none" stroke="#ff0066" stroke-width="2" d="M825.34,-88.09C868.26,-74.54 925.57,-56.44 967.78,-43.12"/>
<polygon fill="#ff0066" stroke="#ff0066" stroke-width="2" points="969.09,-47.11 979.26,-39.49 966.56,-39.1 969.09,-47.11"/>
</g>
<!-- Monitor_4&#45;&gt;Nova -->
<g id="edge65" class="edge">
<title>Monitor_4&#45;&gt;Nova</title>
<path fill="none" stroke="#ff0066" stroke-width="2" d="M704.73,-88.09C660.31,-74.06 600.46,-55.17 557.9,-41.73"/>
<polygon fill="#ff0066" stroke="#ff0066" stroke-width="2" points="559.09,-37.7 546.38,-38.09 556.56,-45.71 559.09,-37.7"/>
</g>
<!-- Monitor_4&#45;&gt;Storage -->
<g id="edge66" class="edge">
<title>Monitor_4&#45;&gt;Storage</title>
<path fill="none" stroke="#ff0066" stroke-width="2" d="M737.44,-84.7C723.9,-73.69 707.58,-60.43 693.77,-49.21"/>
<polygon fill="#ff0066" stroke="#ff0066" stroke-width="2" points="696.19,-45.76 684.23,-41.46 690.9,-52.28 696.19,-45.76"/>
</g>
<!-- iPad -->
<g id="node12" class="node">
<title>iPad</title>
<ellipse fill="#66ccff" stroke="black" stroke-width="2" cx="998.04" cy="-108.12" rx="107.46" ry="24.08"/>
<text text-anchor="middle" x="998.04" y="-111.52" font-family="Courier New" font-size="12.00">Mobile Command</text>
<text text-anchor="middle" x="998.04" y="-98.52" font-family="Courier New" font-size="12.00">(Shortcuts, Voice)</text>
</g>
<!-- iPad&#45;&gt;Athena -->
<g id="edge67" class="edge">
<title>iPad&#45;&gt;Athena</title>
<path fill="none" stroke="#ff0066" stroke-width="2" d="M956.42,-85.77C935.5,-75.04 910.01,-61.96 888.04,-50.69"/>
<polygon fill="#ff0066" stroke="#ff0066" stroke-width="2" points="889.84,-46.9 877.25,-45.16 886.01,-54.37 889.84,-46.9"/>
</g>
<!-- iPad&#45;&gt;Kali_VM -->
<g id="edge68" class="edge">
<title>iPad&#45;&gt;Kali_VM</title>
<path fill="none" stroke="#ff0066" stroke-width="2" d="M1005.7,-83.82C1008.77,-74.49 1012.34,-63.65 1015.57,-53.83"/>
<polygon fill="#ff0066" stroke="#ff0066" stroke-width="2" points="1019.65,-54.85 1019.41,-42.14 1011.67,-52.22 1019.65,-54.85"/>
</g>
<!-- iPad&#45;&gt;Nova -->
<g id="edge69" class="edge">
<title>iPad&#45;&gt;Nova</title>
<path fill="none" stroke="#ff0066" stroke-width="2" d="M921.4,-91.17C907.98,-88.63 894.12,-86.15 881.04,-84.08 747.96,-63.05 711.85,-75.98 580.04,-48.08 572.16,-46.42 563.92,-44.29 555.9,-42.01"/>
<polygon fill="#ff0066" stroke="#ff0066" stroke-width="2" points="557.09,-37.98 544.39,-38.58 554.7,-46.03 557.09,-37.98"/>
</g>
<!-- iPad&#45;&gt;Storage -->
<g id="edge70" class="edge">
<title>iPad&#45;&gt;Storage</title>
<path fill="none" stroke="#ff0066" stroke-width="2" d="M924.57,-90.5C874.67,-79.04 807.24,-63.19 748.04,-48.08 739.87,-46 731.28,-43.73 722.83,-41.46"/>
<polygon fill="#ff0066" stroke="#ff0066" stroke-width="2" points="723.73,-37.35 711.05,-38.26 721.53,-45.46 723.73,-37.35"/>
</g>
<!-- IDEs&#45;&gt;Monitor_1 -->
<g id="edge31" class="edge">
<title>IDEs&#45;&gt;Monitor_1</title>
<path fill="none" stroke="#ff0066" stroke-width="2" d="M961.67,-172.48C1017.17,-159.43 1091.06,-142.05 1147.42,-128.79"/>
<polygon fill="#ff0066" stroke="#ff0066" stroke-width="2" points="1148.45,-132.86 1159.17,-126.03 1146.52,-124.69 1148.45,-132.86"/>
</g>
<!-- IDEs&#45;&gt;Monitor_2 -->
<g id="edge32" class="edge">
<title>IDEs&#45;&gt;Monitor_2</title>
<path fill="none" stroke="#ff0066" stroke-width="2" d="M783,-175.21C766.66,-172.73 749.89,-170.3 734.04,-168.17 593.07,-149.22 556.68,-153.38 416.04,-132.17 406.23,-130.69 396.01,-129 385.84,-127.22"/>
<polygon fill="#ff0066" stroke="#ff0066" stroke-width="2" points="386.51,-123.07 373.96,-125.09 385.03,-131.34 386.51,-123.07"/>
</g>
<!-- IDEs&#45;&gt;Monitor_3 -->
<g id="edge33" class="edge">
<title>IDEs&#45;&gt;Monitor_3</title>
<path fill="none" stroke="#ff0066" stroke-width="2" d="M802.18,-172.48C746.52,-159.43 672.41,-142.05 615.89,-128.79"/>
<polygon fill="#ff0066" stroke="#ff0066" stroke-width="2" points="616.76,-124.68 604.11,-126.03 614.84,-132.86 616.76,-124.68"/>
</g>
<!-- IDEs&#45;&gt;Monitor_4 -->
<g id="edge34" class="edge">
<title>IDEs&#45;&gt;Monitor_4</title>
<path fill="none" stroke="#ff0066" stroke-width="2" d="M850.07,-168.78C836.67,-159.38 820.93,-148.33 806.65,-138.32"/>
<polygon fill="#ff0066" stroke="#ff0066" stroke-width="2" points="808.8,-134.7 796.56,-131.24 803.97,-141.57 808.8,-134.7"/>
</g>
<!-- IDEs&#45;&gt;iPad -->
<g id="edge35" class="edge">
<title>IDEs&#45;&gt;iPad</title>
<path fill="none" stroke="#ff0066" stroke-width="2" d="M913.73,-168.78C927.01,-159.38 942.63,-148.33 956.78,-138.32"/>
<polygon fill="#ff0066" stroke="#ff0066" stroke-width="2" points="959.41,-141.6 966.78,-131.24 954.56,-134.75 959.41,-141.6"/>
</g>
<!-- Terminals&#45;&gt;Monitor_1 -->
<g id="edge36" class="edge">
<title>Terminals&#45;&gt;Monitor_1</title>
<path fill="none" stroke="#ff0066" stroke-width="2" d="M1189.5,-167.91C1195.23,-159.8 1201.77,-150.55 1207.93,-141.82"/>
<polygon fill="#ff0066" stroke="#ff0066" stroke-width="2" points="1211.44,-144.14 1214.93,-131.92 1204.58,-139.29 1211.44,-144.14"/>
</g>
<!-- Terminals&#45;&gt;Monitor_2 -->
<g id="edge37" class="edge">
<title>Terminals&#45;&gt;Monitor_2</title>
<path fill="none" stroke="#ff0066" stroke-width="2" d="M1080.15,-174.84C1063.5,-172.31 1046.28,-169.95 1030.04,-168.17 758.31,-138.39 687.34,-165.6 416.04,-132.17 405.7,-130.89 394.92,-129.28 384.23,-127.5"/>
<polygon fill="#ff0066" stroke="#ff0066" stroke-width="2" points="384.77,-123.33 372.23,-125.43 383.34,-131.61 384.77,-123.33"/>
</g>
<!-- Terminals&#45;&gt;Monitor_3 -->
<g id="edge38" class="edge">
<title>Terminals&#45;&gt;Monitor_3</title>
<path fill="none" stroke="#ff0066" stroke-width="2" d="M1078.55,-175.09C1062.39,-172.59 1045.75,-170.17 1030.04,-168.17 861.32,-146.63 817.36,-156.63 649.04,-132.17 639.57,-130.79 629.71,-129.16 619.9,-127.41"/>
<polygon fill="#ff0066" stroke="#ff0066" stroke-width="2" points="620.56,-123.26 608,-125.23 619.05,-131.53 620.56,-123.26"/>
</g>
<!-- Terminals&#45;&gt;Monitor_4 -->
<g id="edge39" class="edge">
<title>Terminals&#45;&gt;Monitor_4</title>
<path fill="none" stroke="#ff0066" stroke-width="2" d="M1086.51,-173.8C1018.43,-160.1 923.88,-141.08 854.95,-127.21"/>
<polygon fill="#ff0066" stroke="#ff0066" stroke-width="2" points="855.41,-123.02 842.82,-124.77 853.76,-131.26 855.41,-123.02"/>
</g>
<!-- Terminals&#45;&gt;iPad -->
<g id="edge40" class="edge">
<title>Terminals&#45;&gt;iPad</title>
<path fill="none" stroke="#ff0066" stroke-width="2" d="M1126.6,-169.43C1104.13,-158.89 1077,-146.16 1053.46,-135.12"/>
<polygon fill="#ff0066" stroke="#ff0066" stroke-width="2" points="1055.22,-131.31 1042.58,-130.02 1051.66,-138.91 1055.22,-131.31"/>
</g>
<!-- Docker&#45;&gt;Monitor_1 -->
<g id="edge41" class="edge">
<title>Docker&#45;&gt;Monitor_1</title>
<path fill="none" stroke="#ff0066" stroke-width="2" d="M419.32,-174.9C432.12,-172.28 445.44,-169.87 458.04,-168.17 747.4,-129.03 824.31,-168.47 1114.04,-132.17 1123.93,-130.93 1134.24,-129.34 1144.46,-127.58"/>
<polygon fill="#ff0066" stroke="#ff0066" stroke-width="2" points="1145.32,-131.69 1156.39,-125.44 1143.84,-123.42 1145.32,-131.69"/>
</g>
<!-- Docker&#45;&gt;Monitor_2 -->
<g id="edge42" class="edge">
<title>Docker&#45;&gt;Monitor_2</title>
<path fill="none" stroke="#ff0066" stroke-width="2" d="M335.88,-168.34C330.15,-160.23 323.57,-150.93 317.36,-142.13"/>
<polygon fill="#ff0066" stroke="#ff0066" stroke-width="2" points="320.66,-139.53 310.31,-132.15 313.8,-144.38 320.66,-139.53"/>
</g>
<!-- Docker&#45;&gt;Monitor_3 -->
<g id="edge43" class="edge">
<title>Docker&#45;&gt;Monitor_3</title>
<path fill="none" stroke="#ff0066" stroke-width="2" d="M396.99,-170.71C420.76,-159.87 450.17,-146.46 475.47,-134.92"/>
<polygon fill="#ff0066" stroke="#ff0066" stroke-width="2" points="477.23,-138.74 486.4,-129.93 473.74,-131.09 477.23,-138.74"/>
</g>
<!-- Docker&#45;&gt;Monitor_4 -->
<g id="edge44" class="edge">
<title>Docker&#45;&gt;Monitor_4</title>
<path fill="none" stroke="#ff0066" stroke-width="2" d="M422.4,-175.64C434.28,-173.09 446.5,-170.51 458.04,-168.17 542.26,-151.04 563.65,-148.47 648.04,-132.17 656.73,-130.49 665.78,-128.73 674.83,-126.96"/>
<polygon fill="#ff0066" stroke="#ff0066" stroke-width="2" points="675.73,-131.06 686.7,-124.63 674.11,-122.82 675.73,-131.06"/>
</g>
<!-- Docker&#45;&gt;iPad -->
<g id="edge45" class="edge">
<title>Docker&#45;&gt;iPad</title>
<path fill="none" stroke="#ff0066" stroke-width="2" d="M420.22,-175.03C432.75,-172.45 445.75,-170.02 458.04,-168.17 644.61,-140.07 694.19,-158.43 881.04,-132.17 890.58,-130.82 900.53,-129.21 910.41,-127.46"/>
<polygon fill="#ff0066" stroke="#ff0066" stroke-width="2" points="911.35,-131.56 922.4,-125.28 909.84,-123.3 911.35,-131.56"/>
</g>
<!-- Agents&#45;&gt;Monitor_1 -->
<g id="edge46" class="edge">
<title>Agents&#45;&gt;Monitor_1</title>
<path fill="none" stroke="#ff0066" stroke-width="2" d="M686.83,-175.11C702.54,-172.59 718.74,-170.17 734.04,-168.17 902.25,-146.18 946.16,-156.59 1114.04,-132.17 1123.5,-130.79 1133.37,-129.16 1143.17,-127.41"/>
<polygon fill="#ff0066" stroke="#ff0066" stroke-width="2" points="1144.03,-131.52 1155.07,-125.23 1142.51,-123.26 1144.03,-131.52"/>
</g>
<!-- Agents&#45;&gt;Monitor_2 -->
<g id="edge47" class="edge">
<title>Agents&#45;&gt;Monitor_2</title>
<path fill="none" stroke="#ff0066" stroke-width="2" d="M525.61,-172.07C479.98,-159.66 420.46,-143.49 373.19,-130.64"/>
<polygon fill="#ff0066" stroke="#ff0066" stroke-width="2" points="374.14,-126.54 361.46,-127.45 371.93,-134.65 374.14,-126.54"/>
</g>
<!-- Agents&#45;&gt;Monitor_3 -->
<g id="edge48" class="edge">
<title>Agents&#45;&gt;Monitor_3</title>
<path fill="none" stroke="#ff0066" stroke-width="2" d="M578.21,-168.34C571.69,-159.98 564.19,-150.36 557.15,-141.34"/>
<polygon fill="#ff0066" stroke="#ff0066" stroke-width="2" points="560.46,-138.75 549.77,-131.87 553.83,-143.91 560.46,-138.75"/>
</g>
<!-- Agents&#45;&gt;Monitor_4 -->
<g id="edge49" class="edge">
<title>Agents&#45;&gt;Monitor_4</title>
<path fill="none" stroke="#ff0066" stroke-width="2" d="M640.44,-169.64C661.95,-159.19 687.98,-146.55 710.68,-135.53"/>
<polygon fill="#ff0066" stroke="#ff0066" stroke-width="2" points="712.56,-139.28 721.51,-130.26 708.89,-131.73 712.56,-139.28"/>
</g>
<!-- Agents&#45;&gt;iPad -->
<g id="edge50" class="edge">
<title>Agents&#45;&gt;iPad</title>
<path fill="none" stroke="#ff0066" stroke-width="2" d="M680.31,-174C747.2,-160.34 840.5,-141.29 908.68,-127.37"/>
<polygon fill="#ff0066" stroke="#ff0066" stroke-width="2" points="909.77,-131.44 920.68,-124.92 908.09,-123.21 909.77,-131.44"/>
</g>
</g>
</svg>
